# This file uses centimeters as units for non-parametric coordinates.

mtllib ring.mtl
g default
v 1.558556 0.506406 0.013990
v 1.325787 0.963241 0.013990
v 0.963241 1.325787 0.013990
v 0.506406 1.558556 0.013990
v 0.000000 1.638763 0.013990
v -0.506406 1.558556 0.013990
v -0.963241 1.325787 0.013990
v -1.325787 0.963240 0.013990
v -1.558556 0.506405 0.013990
v -1.638762 0.000000 0.013990
v -1.558556 -0.506405 0.013990
v -1.325787 -0.963240 0.013990
v -0.963240 -1.325787 0.013990
v -0.506405 -1.558556 0.013990
v -0.000000 -1.638762 0.013990
v 0.506405 -1.558555 0.013990
v 0.963240 -1.325786 0.013990
v 1.325786 -0.963240 0.013990
v 1.558555 -0.506405 0.013990
v 1.638762 0.000000 0.013990
v 1.558556 0.506406 1.242549
v 1.325787 0.963241 1.242549
v 0.963241 1.325787 1.242549
v 0.506406 1.558556 1.242549
v 0.000000 1.638763 1.242549
v -0.506406 1.558556 1.242549
v -0.963241 1.325787 1.242549
v -1.325787 0.963240 1.242549
v -1.558556 0.506405 1.242549
v -1.638762 0.000000 1.242549
v -1.558556 -0.506405 1.242549
v -1.325787 -0.963240 1.242549
v -0.963240 -1.325787 1.242549
v -0.506405 -1.558556 1.242549
v -0.000000 -1.638762 1.242549
v 0.506405 -1.558555 1.242549
v 0.963240 -1.325786 1.242549
v 1.325786 -0.963240 1.242549
v 1.558555 -0.506405 1.242549
v 1.638762 0.000000 1.242549
vt -0.000725 -0.000623
vt 0.049348 -0.000623
vt 0.099420 -0.000623
vt 0.149493 -0.000623
vt 0.199565 -0.000623
vt 0.249638 -0.000623
vt 0.299710 -0.000623
vt 0.349782 -0.000623
vt 0.399855 -0.000623
vt 0.449927 -0.000623
vt 0.500000 -0.000623
vt 0.550072 -0.000623
vt 0.600145 -0.000623
vt 0.650217 -0.000623
vt 0.700290 -0.000623
vt 0.750362 -0.000623
vt 0.800435 -0.000623
vt 0.850507 -0.000623
vt 0.900580 -0.000623
vt 0.950652 -0.000623
vt 1.000725 -0.000623
vt -0.000725 0.998133
vt 0.049348 0.998133
vt 0.099420 0.998133
vt 0.149493 0.998133
vt 0.199565 0.998133
vt 0.249638 0.998133
vt 0.299710 0.998133
vt 0.349782 0.998133
vt 0.399855 0.998133
vt 0.449927 0.998133
vt 0.500000 0.998133
vt 0.550072 0.998133
vt 0.600145 0.998133
vt 0.650217 0.998133
vt 0.700290 0.998133
vt 0.750362 0.998133
vt 0.800435 0.998133
vt 0.850507 0.998133
vt 0.900580 0.998133
vt 0.950652 0.998133
vt 1.000725 0.998133
vn 0.951057 0.309016 -0.000000
vn 0.809017 0.587785 -0.000000
vn 0.809017 0.587785 -0.000000
vn 0.951057 0.309016 -0.000000
vn 0.587785 0.809017 -0.000000
vn 0.587785 0.809017 -0.000000
vn 0.309017 0.951057 -0.000000
vn 0.309017 0.951057 -0.000000
vn -0.000000 1.000000 -0.000000
vn -0.000000 1.000000 -0.000000
vn -0.309017 0.951056 -0.000000
vn -0.309017 0.951056 -0.000000
vn -0.587785 0.809017 -0.000000
vn -0.587785 0.809017 -0.000000
vn -0.809017 0.587785 -0.000000
vn -0.809017 0.587785 -0.000000
vn -0.951057 0.309017 -0.000000
vn -0.951057 0.309017 -0.000000
vn -1.000000 0.000000 0.000000
vn -1.000000 0.000000 0.000000
vn -0.951056 -0.309017 0.000000
vn -0.951056 -0.309017 0.000000
vn -0.809017 -0.587785 0.000000
vn -0.809017 -0.587785 0.000000
vn -0.587785 -0.809017 0.000000
vn -0.587785 -0.809017 0.000000
vn -0.309017 -0.951057 0.000000
vn -0.309017 -0.951057 0.000000
vn 0.000000 -1.000000 0.000000
vn 0.000000 -1.000000 0.000000
vn 0.309017 -0.951056 0.000000
vn 0.309017 -0.951056 0.000000
vn 0.587785 -0.809017 0.000000
vn 0.587785 -0.809017 0.000000
vn 0.809017 -0.587785 0.000000
vn 0.809017 -0.587785 0.000000
vn 0.951056 -0.309017 0.000000
vn 0.951056 -0.309017 0.000000
vn 1.000000 -0.000001 0.000000
vn 1.000000 -0.000001 0.000000
s 1
g pCylinder1
usemtl E_guiji_250_1SG
f 1/1/1 2/2/2 22/23/3 21/22/4
f 2/2/2 3/3/5 23/24/6 22/23/3
f 3/3/5 4/4/7 24/25/8 23/24/6
f 4/4/7 5/5/9 25/26/10 24/25/8
f 5/5/9 6/6/11 26/27/12 25/26/10
f 6/6/11 7/7/13 27/28/14 26/27/12
f 7/7/13 8/8/15 28/29/16 27/28/14
f 8/8/15 9/9/17 29/30/18 28/29/16
f 9/9/17 10/10/19 30/31/20 29/30/18
f 10/10/19 11/11/21 31/32/22 30/31/20
f 11/11/21 12/12/23 32/33/24 31/32/22
f 12/12/23 13/13/25 33/34/26 32/33/24
f 13/13/25 14/14/27 34/35/28 33/34/26
f 14/14/27 15/15/29 35/36/30 34/35/28
f 15/15/29 16/16/31 36/37/32 35/36/30
f 16/16/31 17/17/33 37/38/34 36/37/32
f 17/17/33 18/18/35 38/39/36 37/38/34
f 18/18/35 19/19/37 39/40/38 38/39/36
f 19/19/37 20/20/39 40/41/40 39/40/38
f 20/20/39 1/21/1 21/42/4 40/41/40
